<?xml version="1.0" encoding="utf-8"?>
<!-- Generator: Adobe Illustrator 22.0.0, SVG Export Plug-In . SVG Version: 6.00 Build 0)  -->
<svg version="1.1" id="Layer_1" xmlns="http://www.w3.org/2000/svg" xmlns:xlink="http://www.w3.org/1999/xlink" x="0px" y="0px"
	 viewBox="0 0 759.8 841.9" style="enable-background:new 0 0 759.8 841.9;" xml:space="preserve">
<style type="text/css">
	.st0{fill:#4D5482;}
</style>
<g>
	<path class="st0" d="M638.4,545.5l-0.2,0.3c-80.9,102-180.1,142.1-267,142.1c-44,0-84.8-10.3-118.5-28
		c-35.9-18.9-63.6-45.9-80.1-78.1c-18.5-36-21.8-75.8-9.7-115.2l0.9-2.8c15.6-41.7,43.6-72.1,81-88c69.9-29.7,148.1,1,160.5,6.2
		c13.8,5.4,54.1,16.1,81.5,4c7.7-3.4,18.9-10.4,27-31.1c11.4-40-24.2-63.8-40.2-72.2c-33-17.4-76.5-21.3-119.4-10.8
		C300.6,285,250.4,319.5,209,371.7C148.5,448.7,98,513.4,58.7,564c-0.9,1.2-1.9,2.3-2.9,3.4v118.7c0,36.2,29.6,65.9,65.9,65.9h517.8
		c36.2,0,65.9-29.6,65.9-65.9V459.7C685,485.7,662.7,514.3,638.4,545.5z"/>
	<path class="st0" d="M130.7,310.1l0.2-0.2c55.3-69.7,124.3-116.3,199.5-134.7c66.2-16.2,135.3-9.2,189.6,19.4
		c77.1,40.6,111.9,115.6,88.6,191.1l-0.9,2.8c-15.6,41.8-43.7,72.6-81.1,89c-23.4,10.2-47.7,13.8-70.1,13.8c-45.5,0-83-14.6-88.9-17
		l-0.9-0.4c-13-5.4-55.6-18.1-83-6.2c-7.4,3.2-18.1,9.7-25.9,29.7c-12.1,42.4,28.5,67.7,41.4,74.4C364,606,473.4,593.1,560,484
		c59.9-76.7,107.6-138,142.4-182.9c0.9-1.2,1.9-2.3,2.9-3.4V168.3c0-36.2-29.6-65.9-65.9-65.9H121.7c-36.2,0-65.9,29.6-65.9,65.9
		v237.3C78.7,376.3,103.7,344.4,130.7,310.1z"/>
</g>
</svg>
