<svg width="104" height="40" viewBox="0 0 104 40" fill="none" xmlns="http://www.w3.org/2000/svg">
<path d="M65.2395 40C61.8743 40 58.7501 39.2136 56.166 37.8614C53.4179 36.4229 51.3062 34.3707 50.0334 31.9157C48.616 29.173 48.3653 26.1426 49.291 23.1505L49.3199 23.0451L49.3585 22.9396C50.5541 19.7653 52.6947 17.4542 55.5585 16.2363C60.91 13.973 66.8883 16.313 67.8429 16.7062C68.8939 17.1185 71.9891 17.9337 74.0719 17.013C74.6601 16.7541 75.5182 16.2171 76.1354 14.6443C77.0032 11.5948 74.284 9.79186 73.0594 9.14934C70.5331 7.82594 67.2065 7.52865 63.9185 8.32461C59.8204 9.32195 55.9828 11.9496 52.8104 15.9198C37.7297 35.0803 35.5988 38.0148 35.512 38.1299C34.2874 39.8369 31.9154 40.2301 30.199 39.0122C28.4827 37.7943 28.0873 35.4256 29.3119 33.7186C29.3891 33.6131 31.414 30.8033 46.8418 11.2399L46.8514 11.2207C51.0844 5.91755 56.3588 2.3693 62.1153 0.969178C67.1872 -0.267915 72.4713 0.269118 76.6271 2.44602C79.3463 3.86532 81.4387 5.89837 82.6825 8.31502C84.0807 11.0194 84.3314 14.021 83.4057 16.9843L83.3768 17.0897L83.3382 17.1952C82.1426 20.3791 79.9923 22.719 77.1285 23.9657C75.335 24.7425 73.4741 25.011 71.7674 25.011C68.2865 25.011 65.413 23.8986 64.9695 23.7163L64.902 23.6876C63.9088 23.2752 60.6497 22.3162 58.5476 23.2177C57.9787 23.4574 57.1688 23.9561 56.571 25.4809C55.6453 28.7127 58.7598 30.6306 59.7433 31.1485C64.7091 33.7569 73.0787 32.7788 79.7127 24.4739C85.151 17.5405 89.2297 12.3236 92.2092 8.51641C94.6873 5.34216 96.3265 3.24198 97.204 2.14873C98.5153 0.508864 100.907 0.230759 102.556 1.53498C104.204 2.8392 104.484 5.21749 103.173 6.85736C102.324 7.92183 100.695 10.0124 98.2261 13.1675C95.2466 16.9843 91.1582 22.2107 85.7103 29.1538L85.691 29.173C79.4813 36.9504 71.8927 40 65.2395 40Z" fill="#7082F5"/>
<path d="M12.2259 39.6155C10.5674 39.6155 8.95713 39.3566 7.46256 38.8291C2.73779 37.1797 -0.183853 33.1231 0.00899507 28.4816C0.201843 23.821 3.6056 19.7165 8.27252 18.5082C12.3512 17.4533 15.2343 18.0479 20.1423 19.7836C22.1286 20.4837 23.1604 22.651 22.4565 24.6265C21.7526 26.602 19.5734 27.6281 17.5871 26.9281C13.3348 25.4225 12.1295 25.3457 10.1914 25.8444C8.78357 26.2088 7.68433 27.4747 7.62648 28.7981C7.54934 30.6202 9.25604 31.4161 9.98886 31.6751C13.5276 32.9122 19.3998 31.0613 24.5392 24.1278L24.5971 24.0511C26.5352 21.5673 27.8466 19.8891 29.0133 18.4123C30.8164 16.1203 32.1181 14.4517 34.4709 11.3925C35.7533 9.73343 38.1446 9.41697 39.8128 10.6828C41.4809 11.9583 41.7991 14.3366 40.5263 15.9956C38.1446 19.0836 36.8333 20.7618 35.0205 23.0729C33.8634 24.5402 32.5617 26.2088 30.6429 28.6638C27.268 33.2094 23.2375 36.5179 18.9852 38.2441C16.7385 39.1552 14.434 39.6155 12.2259 39.6155Z" fill="#7082F5"/>
<path d="M47.3025 7.4801C49.3794 7.4801 51.0631 5.80562 51.0631 3.74005C51.0631 1.67448 49.3794 0 47.3025 0C45.2256 0 43.542 1.67448 43.542 3.74005C43.542 5.80562 45.2256 7.4801 47.3025 7.4801Z" fill="#FF8D14"/>
<path d="M91.8094 32.7692C93.8862 32.7692 95.5699 31.0947 95.5699 29.0291C95.5699 26.9635 93.8862 25.2891 91.8094 25.2891C89.7325 25.2891 88.0488 26.9635 88.0488 29.0291C88.0488 31.0947 89.7325 32.7692 91.8094 32.7692Z" fill="#FF8D14"/>
</svg>
