<svg width="136" height="52" viewBox="0 0 136 52" fill="none" xmlns="http://www.w3.org/2000/svg">
<path d="M85.6537 51.1228C81.2828 51.1228 77.2249 50.1344 73.8684 48.435C70.299 46.627 67.5562 44.0477 65.903 40.9622C64.0619 37.5151 63.7363 33.7063 64.9386 29.9458L64.9762 29.8133L65.0263 29.6807C66.5793 25.6912 69.3597 22.7864 73.0794 21.2557C80.0303 18.4112 87.7954 21.3521 89.0353 21.8463C90.4004 22.3646 94.4207 23.3891 97.1259 22.232C97.8899 21.9066 99.0046 21.2316 99.8061 19.2549C100.933 15.4221 97.4015 13.1562 95.8109 12.3486C92.5295 10.6853 88.2087 10.3117 83.9379 11.3121C78.6151 12.5656 73.6305 15.8681 69.51 20.858C49.9221 44.9396 47.1542 48.6278 47.0415 48.7725C45.4509 50.9179 42.3699 51.412 40.1406 49.8813C37.9113 48.3506 37.3978 45.3736 38.9884 43.2281C39.0886 43.0956 41.7187 39.5641 61.7575 14.9761L61.77 14.952C67.2681 8.28679 74.1189 3.82722 81.5959 2.0675C88.1836 0.512674 95.0469 1.18764 100.445 3.92364C103.977 5.70747 106.694 8.26269 108.31 11.3C110.126 14.6989 110.452 18.4715 109.249 22.1958L109.212 22.3284L109.162 22.461C107.609 26.4626 104.816 29.4035 101.096 30.9703C98.7666 31.9466 96.3494 32.2841 94.1326 32.2841C89.6114 32.2841 85.8792 30.886 85.303 30.657L85.2154 30.6208C83.9254 30.1025 79.6922 28.8972 76.9619 30.0302C76.223 30.3315 75.1709 30.9583 74.3944 32.8747C73.1921 36.9365 77.2374 39.3471 78.5149 39.998C84.9649 43.2763 95.8359 42.047 104.453 31.6091C111.516 22.8949 116.814 16.3381 120.684 11.5531C123.903 7.56362 126.032 4.92403 127.172 3.55C128.875 1.48896 131.981 1.13943 134.123 2.77862C136.264 4.41781 136.627 7.40693 134.924 9.46797C133.822 10.8058 131.705 13.4334 128.499 17.3988C124.629 22.1958 119.319 28.7647 112.243 37.491L112.218 37.5151C104.152 47.29 94.2955 51.1228 85.6537 51.1228Z" fill="white"/>
<path d="M16.7959 50.6392C14.6417 50.6392 12.5502 50.3138 10.6089 49.6509C4.47206 47.5778 0.677214 42.4794 0.927699 36.6458C1.17818 30.7881 5.59924 25.6294 11.661 24.1108C16.9587 22.7849 20.7035 23.5322 27.0783 25.7138C29.6583 26.5937 30.9984 29.3176 30.0841 31.8005C29.1699 34.2834 26.3394 35.5731 23.7594 34.6932C18.2362 32.8009 16.6707 32.7045 14.1533 33.3312C12.3248 33.7892 10.897 35.3802 10.8218 37.0435C10.7217 39.3336 12.9384 40.334 13.8903 40.6594C18.4867 42.2142 26.1139 39.888 32.7894 31.1738L32.8645 31.0773C35.3819 27.9556 37.0852 25.8464 38.6006 23.9902C40.9426 21.1096 42.6334 19.0124 45.6893 15.1675C47.3551 13.0824 50.4611 12.6846 52.6278 14.2756C54.7945 15.8786 55.2078 18.8677 53.5546 20.9529C50.4611 24.8339 48.7578 26.9432 46.4032 29.8479C44.9003 31.692 43.2095 33.7892 40.7172 36.8748C36.3337 42.5879 31.0986 46.7461 25.5754 48.9156C22.6573 50.0606 19.664 50.6392 16.7959 50.6392Z" fill="white"/>
<path d="M62.3556 10.2504C65.0533 10.2504 67.2401 8.14584 67.2401 5.54975C67.2401 2.95366 65.0533 0.849121 62.3556 0.849121C59.658 0.849121 57.4712 2.95366 57.4712 5.54975C57.4712 8.14584 59.658 10.2504 62.3556 10.2504Z" fill="#FF8D14"/>
<path d="M120.165 42.0346C122.863 42.0346 125.05 39.93 125.05 37.3339C125.05 34.7378 122.863 32.6333 120.165 32.6333C117.468 32.6333 115.281 34.7378 115.281 37.3339C115.281 39.93 117.468 42.0346 120.165 42.0346Z" fill="#FF8D14"/>
</svg>
